<!-- sample rectangle -->
<svg width="98" height="28" viewBox="0 0 98 28" fill="none" xmlns="http://www.w3.org/2000/svg">
      <path d="M5.40972 27.8523C5.23808 27.7711 4.91101 27.5877 4.68291 27.4448C4.03452 27.0384 3.85139 26.9604 3.43592 26.9138C2.97773 26.8625 2.81267 26.7559 2.42287 26.2599C2.28013 26.0783 2.01344 25.8104 1.83024 25.6646C1.09846 25.0823 0.941394 24.7609 0.868279 23.6963C0.841839 23.3112 0.793369 22.7333 0.760567 22.4119L0.700928 21.8275L0.871576 21.3748C1.27588 20.3023 1.71773 19.5847 2.3265 19.012C2.83387 18.5347 3.28512 18.29 3.57295 18.336C3.7522 18.3646 3.79046 18.3474 4.01946 18.1349C4.37316 17.8065 4.50364 17.7535 5.25917 17.6314C5.62769 17.5717 6.11587 17.4671 6.34403 17.3987C6.57218 17.3304 6.92218 17.2581 7.12182 17.2382C7.32145 17.2182 7.60146 17.1581 7.74405 17.1046C7.92159 17.038 8.13946 17.0073 8.43522 17.0073C8.94997 17.0072 9.26255 16.8979 10.0373 16.4467L10.5441 16.1517L11.0452 16.165C11.6203 16.1804 11.7795 16.1364 11.8843 15.9335C12.0793 15.5559 12.2266 14.1688 12.1303 13.6161C12.0633 13.2309 11.8775 12.7676 11.747 12.6598C11.7006 12.6215 11.3994 12.5566 11.0775 12.5156C10.6597 12.4623 10.4181 12.4028 10.233 12.3075C9.92018 12.1466 9.68661 12.142 9.16474 12.2866C8.66363 12.4255 8.56505 12.4197 8.29367 12.2358C8.10179 12.1058 8.01485 12.0812 7.74714 12.0812C7.57205 12.0812 7.29442 12.0462 7.13018 12.0034C6.72398 11.8976 6.44928 11.9057 6.06774 12.0345C5.68135 12.165 5.4366 12.3862 5.4366 12.6049C5.4366 12.6926 5.53918 12.9342 5.67743 13.1722L5.91826 13.5866L5.88933 14.0914C5.85447 14.6993 5.66318 15.348 5.43357 15.6369C5.06527 16.1004 4.71777 16.2102 4.06942 16.0681C3.73581 15.995 3.60663 15.9889 3.36015 16.0348C3.103 16.0826 3.02212 16.077 2.80878 15.9964C2.45817 15.8639 2.00549 15.5468 1.80419 15.2927C1.49766 14.9056 1.28788 14.0408 1.28934 13.1701C1.29146 11.9112 1.71436 11.1081 2.64227 10.6008C2.90554 10.4569 3.17223 10.2403 3.53968 9.87215C3.82723 9.58404 4.164 9.28477 4.28805 9.20711C4.41211 9.12944 4.65442 8.96225 4.82652 8.83555L5.13943 8.6052L5.94914 8.61791C6.60138 8.62815 6.81935 8.61268 7.06997 8.53841C7.24108 8.48769 7.69891 8.41591 8.08737 8.37889C8.75305 8.31545 8.81159 8.3007 9.10529 8.12228C9.45055 7.91254 9.56424 7.89799 9.99217 8.00871C10.1531 8.05036 10.5767 8.12037 10.9334 8.16428C11.7279 8.26208 11.841 8.29355 12.2168 8.52117C12.3805 8.62037 12.7362 8.78862 13.0071 8.89506C13.4819 9.08159 13.5195 9.10861 14.0465 9.64283C14.731 10.3367 15.071 10.786 15.3622 11.3812C15.6899 12.0513 15.8028 12.4723 15.8837 13.3257C15.9229 13.7392 15.9942 14.1894 16.0422 14.326C16.1139 14.5301 16.1192 14.6152 16.072 14.8027C15.9985 15.0946 15.9994 15.3612 16.0753 15.804C16.1252 16.0946 16.1207 16.2884 16.0506 16.8809C16.0036 17.2784 15.9393 18.0585 15.9076 18.6147C15.876 19.1708 15.8257 19.7191 15.7958 19.8332C15.6976 20.2082 15.6899 20.6675 15.7769 20.9668C15.8944 21.3709 15.8793 21.5958 15.7051 22.037C15.6137 22.2683 15.5508 22.5252 15.5497 22.671C15.547 23.0443 15.9619 24.0599 16.146 24.1305C16.1925 24.1483 16.3216 24.1629 16.4331 24.1629C16.6239 24.1629 16.6508 24.1421 16.8953 23.806C17.1866 23.4054 17.3871 23.2814 17.7436 23.2814C18.1653 23.2814 19.9667 23.4873 20.5675 23.6041C21.2216 23.7313 21.2743 23.7207 21.4169 23.4323C21.5534 23.156 21.6042 22.8574 21.7985 21.1864C22.0276 19.2176 22.0306 19.1266 21.8755 18.9168C21.7593 18.7596 21.7562 18.7297 21.7876 18.075C21.8056 17.7016 21.8459 17.0578 21.8772 16.6443C21.9388 15.8321 21.9108 15.0512 21.7911 14.2367C21.6809 13.4863 21.6887 13.0091 21.8196 12.5014C21.9942 11.8245 21.9864 11.7561 21.6771 11.2535C21.3486 10.7198 21.3349 10.5497 21.5655 9.87423C21.7353 9.37718 21.7369 9.29292 21.587 8.75236L21.4907 8.40505L21.6118 8.14665C21.7679 7.81335 21.7428 7.65653 21.4157 6.92148C21.2762 6.60798 21.1209 6.22313 21.0706 6.06628C20.9152 5.5819 20.7935 5.5138 20.4221 5.70331C20.1426 5.84591 19.9338 5.8335 19.5489 5.65141C19.1714 5.47282 19.0911 5.46369 18.9245 5.5804C18.7521 5.70113 18.4416 5.75992 18.2566 5.70686C18.1695 5.68188 17.9829 5.57021 17.8418 5.4587C17.7007 5.3472 17.36 5.13114 17.0846 4.97857C16.4849 4.64634 16.1202 4.29611 15.9029 3.84381C15.5892 3.19057 15.7304 2.40836 16.3185 1.54207C16.7244 0.944151 17.1169 0.545337 17.476 0.365883C17.8842 0.161918 18.1252 0.161891 18.7021 0.365749C19.4595 0.63334 19.8305 0.691857 21.3295 0.780077C21.8428 0.81029 22.4262 0.86867 22.6258 0.909811C23.1026 1.00807 23.1773 1.00512 23.5915 0.871702L23.9424 0.758706L24.3212 0.94597C24.8742 1.21939 24.9796 1.35018 25.0695 1.87436C25.2177 2.73816 25.667 4.22923 25.9248 4.71225C26.1415 5.1183 26.1319 5.48857 25.8876 6.15445C25.6027 6.93085 25.6059 6.91412 25.5556 7.89219C25.5108 8.76188 25.4992 8.83212 25.3374 9.21444L25.1666 9.6182V11.7182V13.8183L25.3941 14.3839L25.6216 14.9495L25.432 15.5247C25.3276 15.841 25.2428 16.1895 25.2433 16.2991C25.2439 16.4087 25.3176 16.734 25.4071 17.022C25.5696 17.5453 25.5697 17.546 25.5047 18.0561C25.4192 18.7269 25.4253 18.8868 25.5518 19.2888C25.6855 19.7136 25.6853 19.8809 25.5503 20.5146C25.4681 20.9004 25.4397 21.2294 25.4347 21.8555C25.4274 22.7719 25.4877 23.1621 25.6966 23.5499C25.8447 23.825 25.8637 23.8344 26.6816 24.0395C27.2103 24.1721 27.2857 24.1794 27.5112 24.1201C27.6476 24.0841 27.9459 23.9325 28.1741 23.783C28.9515 23.2738 28.8854 23.2854 30.5075 23.3739C31.391 23.4221 32.5402 23.4568 32.7445 23.4414C32.9056 23.4293 33.1307 22.5053 33.2783 21.2505C33.3375 20.7466 33.4469 20.0502 33.5213 19.703C33.6662 19.0273 33.6636 18.9989 33.4282 18.706C33.3148 18.5649 33.3144 18.558 33.3762 17.6948C33.465 16.4537 33.4548 14.7991 33.3526 13.8657L33.2669 13.0835L33.4041 12.4657C33.5921 11.6192 33.5873 11.5566 33.2991 11.0947C32.9947 10.6067 32.9618 10.3698 33.1294 9.87003C33.2682 9.45598 33.2868 8.99078 33.1834 8.51877C33.1169 8.21528 33.1191 8.1866 33.2232 8.01024C33.3821 7.74084 33.3609 7.52549 33.1194 6.9581C33.0016 6.68149 32.8253 6.24517 32.7276 5.9885C32.5088 5.41414 32.4293 5.28849 32.285 5.28849C32.223 5.28849 32.0841 5.34963 31.9762 5.42437L31.7802 5.56025L31.3631 5.47622C31.1338 5.43001 30.8194 5.39219 30.6645 5.39219C30.3909 5.39219 30.3784 5.3858 30.2291 5.16883C30.0134 4.85527 29.9822 4.83698 29.5643 4.77911C29.2887 4.74093 29.1312 4.68594 28.9597 4.56794C28.649 4.35414 28.3718 4.02752 28.207 3.68105C28.0211 3.29005 28.0152 2.59512 28.1929 2.02176C28.3624 1.47487 28.7305 0.785613 29.0073 0.496772C29.2423 0.251467 29.6869 0.00095353 29.8889 6.27017e-07C29.948 -0.000277905 30.2425 0.0922762 30.5434 0.205677C30.8443 0.319077 31.2277 0.425664 31.3953 0.442537C31.5629 0.45941 31.8401 0.52376 32.0112 0.585537C32.2874 0.685253 32.4096 0.696174 33.1001 0.68285C33.8305 0.668756 33.8996 0.676028 34.2343 0.802303L34.5907 0.936764L35.0523 0.800929L35.514 0.665094L35.8367 0.821847C36.2375 1.01654 36.3224 1.08472 36.3921 1.26823C36.4225 1.34823 36.5858 1.97349 36.7549 2.65771C37.0134 3.70381 37.105 3.9884 37.3304 4.44652C37.577 4.94776 37.596 5.01251 37.5681 5.25656C37.5514 5.40246 37.4412 5.7785 37.3232 6.09221C37.119 6.63514 37.1054 6.70751 37.0413 7.59594C36.9817 8.42139 36.9549 8.58017 36.8097 8.96944C36.612 9.49955 36.5522 10.0503 36.5509 11.3553C36.5495 12.6637 36.618 13.3566 36.8071 13.9479C37.0563 14.7272 37.0611 14.9634 36.8401 15.5774L36.6549 16.092L36.8419 16.6393L37.0288 17.1865L36.993 17.9694C36.9583 18.7292 36.9613 18.764 37.0954 19.1524L37.2336 19.5526L37.0731 20.3929C36.8458 21.5824 36.8084 21.8536 36.808 22.3142C36.8076 22.6905 36.8237 22.7521 37.0219 23.1332C37.2737 23.6172 37.3182 23.6464 38.0846 23.8311C38.7235 23.985 38.9064 23.9793 39.6066 23.7832C40.1776 23.6232 41.0754 23.5191 41.4484 23.5696C41.9345 23.6354 42.2788 23.878 42.5316 24.3327C42.7719 24.7649 42.8651 25.222 42.7801 25.5508C42.6346 26.1137 42.1441 26.8944 41.819 27.0807C41.7498 27.1204 41.4824 27.1458 41.1114 27.1479C40.6399 27.1506 40.406 27.1801 39.9943 27.2887L39.4735 27.426L39.0609 27.3253C38.4836 27.1842 37.9855 27.1486 37.5458 27.2168C37.2633 27.2606 36.9526 27.2598 36.3014 27.2134C34.9125 27.1143 34.4676 27.125 33.9365 27.2702C33.4359 27.407 33.4254 27.4061 32.789 27.1705C32.4975 27.0625 32.4516 27.0593 32.0616 27.1194L31.6453 27.1835L31.3242 27.0214C31.1475 26.9322 30.9413 26.8593 30.8659 26.8593C30.7892 26.8593 30.6117 26.945 30.4632 27.0537L30.1977 27.2482L29.6923 27.2336C29.2873 27.2219 29.0772 27.2459 28.6357 27.3543C28.1103 27.4834 28.0636 27.4866 27.6367 27.4234C27.3683 27.3837 26.6384 27.3555 25.8148 27.3529C25.059 27.3506 24.1957 27.33 23.8962 27.3072C23.372 27.2672 23.3349 27.2714 22.9004 27.4213L22.4489 27.5771L22.0707 27.4127C21.7101 27.2561 21.6651 27.249 21.1059 27.2618C20.5265 27.2751 20.5146 27.273 20.1466 27.0912C19.8382 26.9389 19.7381 26.9126 19.5665 26.939C19.252 26.9872 18.6321 27.1642 18.3858 27.276C18.2163 27.3529 18.0466 27.3758 17.6387 27.3767C17.3485 27.3773 16.9324 27.4026 16.7142 27.433C15.836 27.5551 15.1486 27.304 14.5441 26.6403C14.1341 26.1899 13.8043 25.9517 13.5181 25.8992C13.3043 25.86 13.1891 25.9073 12.8699 26.1652C12.7516 26.2607 12.3509 26.4876 11.9794 26.6694C11.6079 26.8511 11.2146 27.0698 11.1055 27.1554C10.9964 27.2409 10.8557 27.3379 10.793 27.3708C10.6528 27.4442 9.43198 27.5314 8.52184 27.533C7.55537 27.5346 7.09623 27.6 6.54043 27.8152C6.2777 27.9168 5.98603 28 5.89227 28C5.7985 28 5.58136 27.9335 5.40972 27.8523ZM7.1365 24.7145C7.54354 24.5105 7.70871 24.4787 8.61558 24.4294C9.36979 24.3883 9.49725 24.369 9.56247 24.2854C9.60391 24.2323 9.78698 23.9788 9.96928 23.7222C10.4289 23.0751 10.5343 22.9794 11.4945 22.3371C12.1987 21.866 12.3546 21.7387 12.4207 21.5806C12.5155 21.3536 12.5791 19.8293 12.5053 19.5519C12.4794 19.4542 12.3965 19.3283 12.3212 19.2721C12.1849 19.1703 12.1828 19.1703 11.7272 19.2803C11.4758 19.341 10.9912 19.4735 10.6503 19.5748C10.1195 19.7324 9.91118 19.766 9.19844 19.8088C7.74524 19.8961 7.29581 19.9945 6.47033 20.4066C6.22609 20.5285 5.77108 20.737 5.4592 20.87C5.14732 21.0029 4.83829 21.1618 4.77246 21.2232C4.60264 21.3815 4.36757 21.9024 4.29309 22.2854C4.10041 23.2762 4.56528 24.1029 5.46161 24.3634C5.68034 24.4269 6.02669 24.5592 6.23129 24.6574C6.67214 24.8688 6.81094 24.8776 7.1365 24.7145Z" fill="#ab9483"></path>
      <path d="M57.5803 27.4256C57.2982 27.3424 56.8549 27.2489 56.5951 27.2176C56.2257 27.1732 55.9532 27.0937 55.345 26.8529C54.3335 26.4525 54.3412 26.4568 54.1557 26.1899C54.0683 26.0642 53.9426 25.8954 53.8763 25.8149L53.7558 25.6684L53.5392 25.7781C53.4202 25.8384 52.8094 26.2319 52.182 26.6526L51.0412 27.4175L49.6304 27.4793L48.2197 27.5412L47.9069 27.4008C47.6395 27.2808 47.5584 27.2664 47.3473 27.3019C47.2115 27.3246 46.902 27.3452 46.6596 27.3476C46.2763 27.3513 46.1802 27.3328 45.9219 27.206C44.8931 26.7008 43.3177 24.3669 42.6183 22.3118C42.2436 21.2107 42.2448 21.2247 42.2231 17.8369C42.2124 16.1685 42.1779 14.4651 42.1465 14.0516C42.0905 13.315 41.9571 12.5131 41.8416 12.2178C41.784 12.0706 41.7808 12.0696 41.4592 12.104C41.0516 12.1477 40.5005 12.0621 40.2446 11.9155C39.6482 11.5737 39.1154 11.0104 38.965 10.5627C38.8679 10.2736 38.856 9.5912 38.9359 8.89223C38.9993 8.33658 39.104 8.14891 39.5433 7.80308C40.1498 7.32564 40.7645 7.2373 41.5262 7.51813C41.9876 7.68826 42.2901 7.71825 42.3361 7.59842C42.3676 7.51635 42.5749 7.43986 42.9024 7.3894C43.8939 7.23667 45.5466 8.27252 46.0486 9.36127C46.1531 9.58804 46.1664 9.69419 46.1618 10.2663C46.1569 10.8741 46.1441 10.9516 45.9562 11.5108C45.7716 12.0604 45.756 12.1518 45.7567 12.6775C45.7576 13.3217 45.8198 13.5333 46.1932 14.1618C46.4915 14.6639 46.5048 14.8011 46.2939 15.2031C46.1998 15.3826 46.0889 15.5961 46.0475 15.6777C45.9467 15.8763 45.7889 16.4977 45.7477 16.8584C45.7165 17.1309 45.7277 17.1742 45.9147 17.5066L46.1152 17.8628L46.1411 19.9418L46.167 22.0208L46.3713 22.2752C46.9109 22.9472 47.4837 23.4714 47.8446 23.6234C47.9747 23.6782 48.2928 23.7125 48.8642 23.7331L49.6946 23.7631L50.0763 23.3544C50.7215 22.6635 52.1106 20.8442 52.5638 20.0965C52.7999 19.7069 53.177 18.7587 53.3099 18.2202L53.4214 17.7688L53.2993 17.3232C53.1304 16.7063 53.1187 16.4824 53.2173 15.7601C53.3127 15.0611 53.3099 15.035 53.0565 14.239C52.9409 13.8758 52.8878 13.6243 52.9078 13.5336C52.9248 13.4561 53.0558 13.2613 53.1989 13.1008C53.5094 12.7524 53.5783 12.5619 53.4793 12.3251C53.3732 12.0711 53.2552 11.9928 52.8342 11.8971C52.6227 11.849 52.2261 11.7165 51.9529 11.6026C51.4812 11.4062 51.435 11.3969 51.0412 11.4209C50.2003 11.472 49.5795 11.2604 49.0501 10.742C48.5248 10.2278 48.4669 9.9485 48.7654 9.36899C49.0837 8.75085 50.2294 7.50105 50.6959 7.26306C50.9604 7.12813 51.1038 7.12814 51.7029 7.26307C52.3871 7.4172 52.7486 7.41759 53.0764 7.26456L53.3418 7.14062L53.6952 7.27118C54.1204 7.42825 54.2218 7.44518 55.3292 7.54395C56.352 7.63518 56.6899 7.73842 57.012 8.05821C57.2485 8.29299 57.2959 8.42962 57.3829 9.12557C57.4131 9.36798 57.4773 9.76466 57.5254 10.0071C57.6331 10.5498 57.6482 12.8363 57.5526 14.1449C57.4891 15.0141 57.4096 15.3992 57.1545 16.0739C57.0233 16.4208 57.0073 16.5298 57.0059 17.085C57.0046 17.5633 57.0301 17.8032 57.1161 18.122C57.2123 18.4791 57.2321 18.7283 57.2579 19.911C57.2761 20.7477 57.2648 21.5923 57.229 22.0706C57.1732 22.8146 57.1754 22.8652 57.2712 23.0292C57.4026 23.2542 57.6968 23.3634 58.4482 23.4659C59.3806 23.593 59.9786 23.8405 60.2398 24.2073C60.4944 24.565 60.5703 25.6326 60.3657 25.979C60.3176 26.0605 60.0316 26.2897 59.7302 26.4884C59.4287 26.6871 58.9722 27.0151 58.7158 27.2174C58.4593 27.4197 58.2143 27.5833 58.1713 27.581C58.1283 27.5786 57.8624 27.5087 57.5803 27.4256Z" fill="#ab9483"></path>
      <path d="M62.0059 27.1303C61.3254 26.6365 60.9485 25.8325 61.0873 25.1708C61.2608 24.3437 61.783 23.8935 62.573 23.8898C62.7753 23.8888 63.1122 23.919 63.3215 23.9568C63.6627 24.0184 63.7299 24.016 63.9701 23.9344C64.3291 23.8124 64.781 23.5016 64.9011 23.2941C65.0307 23.0702 65.2471 21.9936 65.2476 21.5701C65.2478 21.3847 65.2225 21.0249 65.1913 20.7705C65.1475 20.4135 65.1545 19.8342 65.2221 18.2298C65.3392 15.4489 65.3143 12.2333 65.1727 11.8535C65.0467 11.5158 64.7663 11.2551 64.1646 10.9163C63.3778 10.4732 63.4733 10.4871 62.9132 10.7336C62.3664 10.9743 62.134 10.9995 61.7731 10.8576C60.9492 10.5334 60.1669 9.72477 59.8909 8.91188C59.8304 8.73368 59.8229 8.62281 59.8599 8.45787C60.0325 7.68987 60.6229 7.10935 61.5013 6.8439C61.8604 6.73537 61.9485 6.73131 63.5495 6.7494C65.1609 6.76762 65.2304 6.77256 65.4407 6.88388C65.7112 7.02707 65.8254 7.0281 66.2124 6.89085C66.8283 6.6725 67.6249 6.7648 68.101 7.10967C68.3546 7.29337 68.4559 7.50037 68.7023 8.33772C68.9046 9.02517 69.0848 9.36954 69.2661 9.41503C69.5295 9.48115 69.7444 9.34794 70.6568 8.55307C71.1446 8.12809 71.5185 7.93281 71.8445 7.93281C72.0678 7.93281 72.1187 7.90603 72.4813 7.59784C73.1295 7.04697 73.7785 6.79204 74.5328 6.79204C74.7935 6.79204 75.0314 6.82742 75.23 6.89575C75.3958 6.95279 75.587 6.99945 75.655 6.99945C75.723 6.99945 75.8701 6.95279 75.9819 6.89575C76.3167 6.7249 76.4328 6.75409 76.7571 7.09069C76.9154 7.25495 77.3862 7.89193 77.8033 8.50621L78.5618 9.62308L78.5968 10.1132C78.66 10.9991 78.7326 11.6315 78.8406 12.2366C79.0087 13.1778 78.8925 13.6432 78.3726 14.1102C78.0428 14.4064 77.0358 15.0926 76.5959 15.3209L76.3025 15.4732L75.844 15.262C75.5919 15.1459 75.2806 15.0078 75.1522 14.9551C74.605 14.7305 73.948 14.0458 73.6149 13.3529C73.3982 12.9021 73.3889 12.5997 73.5702 11.888C73.7146 11.3214 73.7272 11.1596 73.6415 10.9715C73.5593 10.7913 73.4663 10.77 73.1549 10.8606C72.9589 10.9175 72.7718 11.0361 72.4757 11.291C72.2509 11.4845 71.8301 11.834 71.5405 12.0678C70.9407 12.552 70.7663 12.7464 70.5323 13.1915C70.1146 13.9859 69.9225 14.2589 69.3903 14.8143C68.9402 15.284 68.7913 15.4801 68.6157 15.8344L68.3984 16.2731L68.483 16.8604C68.5865 17.5786 68.5883 18.0988 68.4924 19.5738C68.4516 20.2012 68.402 21.1349 68.3822 21.6487L68.3462 22.5828L68.6769 22.872C69.1157 23.2556 69.4545 23.4932 69.8632 23.7039L70.2003 23.8776H71.8168H73.4333L73.7099 24.1161C74.4376 24.7436 74.4807 25.4824 73.8388 26.3223C73.5248 26.7331 73.165 26.882 72.1062 27.0394C71.3815 27.1471 70.7886 27.1397 70.272 27.0163C69.8939 26.926 69.8293 26.9228 69.7113 26.9885C69.2336 27.2547 69.2905 27.2465 67.9187 27.2473L66.6224 27.248L66.3178 27.1054C65.9559 26.936 65.8001 26.9297 65.352 27.0665C64.939 27.1927 64.4277 27.1995 63.8997 27.0861C63.5177 27.004 63.4971 27.0048 63.0689 27.1208C62.3818 27.3069 62.2508 27.308 62.0059 27.1303Z" fill="#ab9483"></path>
      <path d="M87.8821 27.552C86.8792 27.4853 86.4484 27.3205 85.9213 26.8021C85.4977 26.3855 85.4122 26.3406 85.044 26.3406C84.1738 26.3406 83.2641 25.9286 82.3157 25.1049C81.8881 24.7336 81.7717 24.5471 81.614 23.9811C81.4384 23.351 81.3032 23.0596 80.6746 21.9554C79.6963 20.2372 79.6094 20.0226 79.3318 18.6404C79.0753 17.363 79.0621 17.1679 79.1981 16.6747C79.3 16.3056 79.3076 16.1937 79.2744 15.5532C79.2304 14.7021 79.2499 14.6171 79.7688 13.4033C79.9639 12.947 80.1732 12.387 80.234 12.1588C80.511 11.1184 80.7846 10.494 81.2258 9.8958C81.5205 9.49627 81.7153 9.33539 82.1223 9.15538C82.373 9.0445 82.4307 8.9919 82.5182 8.79404C82.6541 8.48679 82.8835 8.29442 84.0862 7.4791L85.0997 6.79205L85.4279 6.7903C86.0939 6.78676 86.8418 6.69472 86.9048 6.60854C86.9377 6.56348 87.0895 6.476 87.2419 6.41415C87.4986 6.31001 87.625 6.30037 88.9481 6.28402L90.3771 6.26636L90.932 6.55737C91.2372 6.71743 91.7958 6.96049 92.1734 7.09751C93.382 7.53609 94.304 8.04923 94.8045 8.56191C94.9898 8.75179 95.3219 9.02937 95.5424 9.17874C96.0255 9.50603 96.1258 9.65197 96.611 10.7329C97.1467 11.9263 97.3535 12.5779 97.3678 13.1181C97.3782 13.5129 97.4026 13.6102 97.6016 14.0514C97.9079 14.7303 97.9245 14.9758 97.7056 15.5811C97.6128 15.8378 97.4678 16.2456 97.3835 16.4874C97.2992 16.7292 97.1649 17.0209 97.0851 17.1356C96.7799 17.5742 96.3135 17.9247 95.8 18.1013C95.4564 18.2196 95.2784 18.2224 94.7008 18.1186C94.2118 18.0307 93.8983 18.0485 93.1846 18.2044C92.6118 18.3295 92.3229 18.3285 91.0436 18.1968C90.474 18.1382 89.7397 18.0866 89.4118 18.0821C88.8601 18.0745 88.776 18.0871 88.2881 18.2502L87.7607 18.4264L87.2733 18.3306C86.8121 18.2399 86.7583 18.2393 86.271 18.3193C85.8986 18.3804 85.5975 18.395 85.1825 18.3722C84.6349 18.3422 84.5945 18.3472 84.2931 18.4824C84.1195 18.5603 83.9125 18.6918 83.8332 18.7747L83.6889 18.9253L83.7832 19.431C83.9833 20.5034 84.2606 21.45 84.4986 21.8731C84.7973 22.4041 85.0918 22.6162 85.7978 22.809C86.2323 22.9276 86.3532 22.9903 86.7154 23.2847C87.0503 23.5568 87.2295 23.636 87.7128 23.7253C88.2144 23.818 88.5471 23.9174 88.9549 24.0964L89.2499 24.2259L89.9401 24.0389C90.3197 23.9361 90.7703 23.8273 90.9414 23.7972C91.4572 23.7065 91.5998 23.6433 91.9739 23.3395C92.412 22.9836 92.9048 22.4301 93.4953 21.6306C94.0882 20.8279 94.4213 20.4435 94.6172 20.3362C94.7496 20.2637 94.9228 20.2479 95.5823 20.2479C96.5119 20.2479 96.6692 20.2871 96.9741 20.595C97.5916 21.2187 97.5073 22.5023 96.7493 24.019C96.4652 24.5875 96.2236 24.9338 95.9873 25.1112C95.8928 25.1821 95.5823 25.3369 95.2971 25.4552C95.0119 25.5735 94.4519 25.8533 94.0526 26.0771C93.1118 26.6043 92.3061 27.0047 91.7011 27.2457C91.2869 27.4107 91.1775 27.4345 90.9493 27.4089C90.0902 27.3128 89.743 27.3152 89.2033 27.4208C88.5762 27.5435 88.2464 27.5762 87.8821 27.552ZM90.8985 14.8287C91.3499 14.7094 91.8048 14.5904 91.9094 14.5642C92.151 14.5035 92.5327 14.1219 92.7059 13.7678C92.9784 13.2109 92.9293 12.2521 92.6116 11.9252C92.2398 11.5427 91.1323 10.937 90.5649 10.8059C90.3727 10.7615 90.0405 10.6277 89.8266 10.5086C89.4528 10.3005 89.4206 10.2923 88.9969 10.2957C88.6725 10.2984 88.4338 10.3367 88.0924 10.441C87.0626 10.7556 86.5006 11.0601 86.2142 11.4588C85.8463 11.9711 85.8427 11.9736 85.3731 12.0551C84.5945 12.1902 84.3047 12.413 83.9335 13.162C83.7805 13.4706 83.7324 13.635 83.717 13.901C83.6727 14.6653 84.0184 14.8283 85.3391 14.666C85.7808 14.6117 85.8627 14.6163 86.2676 14.7179C86.7648 14.8426 87.0248 14.8548 87.4619 14.774C87.7863 14.714 87.9074 14.7324 88.6858 14.9593C89.3155 15.1429 89.822 15.113 90.8985 14.8287Z" fill="#ab9483"></path>
    </svg>