<!-- sample rectangle -->
<svg width="132" height="32" viewBox="0 0 132 32" fill="none" xmlns="http://www.w3.org/2000/svg">
      <path fill-rule="evenodd" clip-rule="evenodd" d="M23.7341 29.8661C23.4835 30.8695 23.449 30.9705 23.1948 30.9705H20.3375V31.1669H26.809V30.9705H23.8468C23.6552 30.9705 23.6873 30.8344 23.9202 29.9174L25.9108 22.1882H33.7908L36.1966 30.9705H32.9954V31.1669H43.7638V30.9705H40.4161L31.486 0H31.4317L23.7341 29.8661ZM29.7206 7.38528L33.7296 21.9928H25.9672L29.7206 7.38528ZM116.483 15.7146H118.946C121.129 15.7146 124.347 16.6544 124.347 20.4731V27.3884C124.347 30.2181 125.909 32 128.664 32C131.559 32 131.514 29.0765 131.514 26.9675V24.7448H131.318V26.9675C131.318 29.3664 131.034 31.4496 129.621 31.4496C128.37 31.4496 128.101 30.6734 128.101 27.4186V20.4731C128.101 17.2594 125.496 16.0815 121.473 15.6154C126.483 15.0194 128.37 11.8198 128.37 8.28165C128.37 3.04825 125.953 0.848401 119.73 0.848401L109.864 0.846302V1.04296H112.454C112.641 1.04296 112.73 1.09543 112.73 1.20155V30.8107C112.73 30.9175 112.641 30.9705 112.454 30.9705H109.864V31.1669H118.936V30.9705H116.757C116.57 30.9705 116.483 30.9175 116.483 30.8107V15.7146ZM116.483 1.04476H119.142C123.238 1.04476 124.396 4.16016 124.396 8.28165C124.396 12.1405 123.238 15.5182 119.142 15.5182H116.483V1.04476ZM50.4599 30.8158C50.4278 30.8863 50.4641 30.9705 50.6155 30.9705L57.6842 30.9723C59.8604 30.9723 62.6694 27.7538 62.6694 17.3826V16.3028H62.866V31.1681H45.9886L58.7748 1.19616C58.806 1.1266 58.7694 1.04296 58.6183 1.04296L51.1134 1.04476C49.1435 1.04476 46.283 4.64102 46.283 14.6351V15.7146H46.0866V0.848401H63.2588L50.4599 30.8158ZM8.67422 1.04476C12.7711 1.04476 14.4391 4.16016 14.4391 8.28165C14.4391 12.1405 12.7711 15.2235 8.67422 15.2235H6.81013V1.04476H8.67422ZM0.191406 0.846302V1.04296H2.78218C2.96954 1.04296 3.05708 1.09543 3.05708 1.20155V30.8107C3.05708 30.9175 2.96954 30.9705 2.78218 30.9705H0.191406V31.1669L9.85208 31.1681C16.0745 31.1681 19.3943 28.5761 19.3943 23.3442C19.3943 19.721 17.4322 16.0333 11.2386 15.2988C16.4999 14.8068 18.3151 11.5023 18.3151 8.28165C18.3151 3.57168 15.486 0.848401 9.2633 0.848401L0.191406 0.846302ZM8.67422 15.4199C13.294 15.4199 15.1263 18.5683 15.1263 23.3442C15.1263 27.4645 13.4906 30.9723 9.65542 30.9723L7.08504 30.9705C6.89767 30.9705 6.81013 30.9175 6.81013 30.8107V15.4175L8.67422 15.4199ZM68.2841 29.8661C68.0323 30.8695 67.9978 30.9705 67.7442 30.9705H64.8869V31.1669H71.3591V30.9705H68.3959C68.2056 30.9705 68.2368 30.8344 68.4709 29.9174L70.4606 22.1882H78.3405L80.7469 30.9705H77.5446V31.1669H88.3139V30.9705H84.9649L76.0354 0H75.9806L68.2841 29.8661ZM74.2706 7.38528L78.2785 21.9928H70.516L74.2706 7.38528Z" fill="#ab9483"></path>
      <path fill-rule="evenodd" clip-rule="evenodd" d="M89.7778 29.8661C89.5263 30.8695 89.493 30.9705 89.2391 30.9705H86.3812V31.1669H92.853V30.9705H89.8902C89.6998 30.9705 89.7313 30.8344 89.9646 29.9174L91.9552 22.1882H99.8348L102.241 30.9705H99.0389V31.1669H109.808V30.9705H106.46L97.5306 0H97.4758L89.7778 29.8661ZM95.7652 7.38528L99.7736 21.9928H92.0103L95.7652 7.38528ZM82.853 3.98449C82.853 3.99648 82.8641 4.00097 82.8851 4.00097H83.3225V4.07083H81.8292V4.00097H82.2192C82.2411 4.00097 82.2507 3.99648 82.2507 3.98449V2.47265H80.8246V3.98449C80.8246 3.99648 80.8345 4.00097 80.8558 4.00097H81.2458V4.07083H79.7532V4.00097H80.1906C80.2118 4.00097 80.2217 3.99648 80.2217 3.98449V1.01778C80.2217 1.00699 80.2118 1.00189 80.1906 1.00189H79.7532V0.931742H81.2458V1.00189H80.8558C80.8345 1.00189 80.8246 1.00699 80.8246 1.01778V2.4034H82.2507V1.01778C82.2507 1.00699 82.2411 1.00189 82.2192 1.00189H81.8292V0.931742H83.3225V1.00189H82.8851C82.8641 1.00189 82.853 1.00699 82.853 1.01778V3.98449ZM86.9991 2.696C86.8617 2.696 86.7697 2.63244 86.7697 2.52542C86.7697 2.42858 86.8279 2.43188 86.8279 2.36083C86.8279 2.28888 86.7817 2.25591 86.7077 2.25591C86.6312 2.25591 86.4948 2.28139 86.3914 2.59557V3.98449C86.3914 3.99648 86.401 4.00097 86.4226 4.00097H86.6906V4.07083H85.6395V4.00097H85.9066C85.9282 4.00097 85.9378 3.99648 85.9378 3.98449V2.27C85.9378 2.2595 85.9282 2.25351 85.9066 2.25351H85.6395V2.18366H86.3782L86.3914 2.19715V2.49004C86.4702 2.24601 86.6405 2.14529 86.8408 2.14529C87.0845 2.14529 87.2428 2.27329 87.2428 2.47145C87.2428 2.59647 87.1462 2.696 86.9991 2.696ZM90.9413 4.1089C91.2833 4.1089 91.5585 3.94312 91.7423 3.68919L91.6892 3.64662C91.5175 3.88975 91.2872 4.04025 90.9413 4.04025C90.8148 4.04025 90.7128 4.01626 90.6256 3.93892C90.4817 3.80971 90.4367 3.65832 90.4367 3.12769C90.4367 3.08842 90.437 3.07763 90.4379 3.04165H91.7825L91.7957 3.02936C91.7957 2.67111 91.5486 2.14529 90.9413 2.14529C90.3807 2.14529 89.9595 2.58567 89.9595 3.12769C89.9595 3.66881 90.3807 4.1089 90.9413 4.1089ZM91.1907 2.31676C91.2938 2.43308 91.3274 2.61295 91.3355 2.9718H90.4391C90.4502 2.61295 90.4955 2.43308 90.6256 2.31676C90.7128 2.23912 90.8148 2.21514 90.9413 2.21514C91.0507 2.21514 91.1214 2.23912 91.1907 2.31676ZM84.2518 4.02256C84.4922 4.02256 84.6481 3.85138 84.6481 3.6877V3.03446C84.5363 3.09891 84.3741 3.09891 84.2308 3.12469C84.0698 3.15407 83.8971 3.23831 83.8971 3.64483C83.8971 3.95511 84.1004 4.02256 84.2518 4.02256ZM83.6873 2.52901C83.6873 2.37222 83.8849 2.14529 84.2665 2.14529C84.8256 2.14529 85.1023 2.39171 85.1023 2.94512V3.84538C85.1023 3.95121 85.153 3.99498 85.2267 3.99498C85.313 3.99498 85.3823 3.92363 85.4009 3.88046L85.4468 3.92603C85.4186 4.00457 85.2753 4.1089 85.093 4.1089C84.8861 4.1089 84.7042 3.98928 84.6721 3.8232C84.6061 4.01237 84.4251 4.1089 84.1646 4.1089C83.7326 4.1089 83.455 3.9584 83.455 3.64483C83.455 3.18195 83.9493 3.07433 84.1394 3.05904C84.4074 3.03656 84.6481 3.01887 84.6481 2.92413V2.66602C84.6481 2.35004 84.5102 2.21514 84.2665 2.21514C84.1445 2.21514 84.0686 2.2709 84.0686 2.4016C84.0686 2.47595 84.1073 2.49874 84.1073 2.57128C84.1073 2.65253 84.0428 2.72987 83.8899 2.72987C83.7445 2.72987 83.6873 2.62914 83.6873 2.52901ZM88.9483 2.31467C88.867 2.23912 88.757 2.21514 88.6395 2.21514C88.477 2.21514 88.3277 2.32246 88.2243 2.44357V3.76294C88.2866 3.92003 88.4674 4.04025 88.6395 4.04025C88.757 4.04025 88.867 4.01686 88.9483 3.94042C89.0823 3.81361 89.1725 3.59266 89.1725 3.13908C89.1725 2.6852 89.0823 2.44118 88.9483 2.31467ZM89.6339 3.13908C89.6339 3.62924 89.2175 4.1089 88.6395 4.1089C88.4626 4.1089 88.3277 3.99858 88.2243 3.89185V5.35392C88.2243 5.36411 88.2351 5.36921 88.2561 5.36921H88.5232V5.43906H87.473V5.36921H87.7398C87.7611 5.36921 87.771 5.36411 87.771 5.35392V2.27C87.771 2.2595 87.7611 2.25351 87.7398 2.25351H87.473V2.18366H88.2114L88.2243 2.19715V2.36533C88.3277 2.25771 88.4626 2.14529 88.6395 2.14529C89.2175 2.14529 89.6339 2.64833 89.6339 3.13908ZM95.3671 2.19805C95.4168 2.19805 95.4444 2.17766 95.4498 2.15848H95.5256V2.62615H95.4498C95.4498 2.35424 95.2061 2.21514 94.9752 2.21514C94.7363 2.21514 94.6209 2.32246 94.6209 2.49184C94.6209 2.70979 94.7774 2.82071 95.1326 2.92024C95.5046 3.02486 95.7496 3.20654 95.7496 3.49014C95.7496 3.84898 95.4597 4.1089 94.9959 4.1089C94.7204 4.1089 94.6011 3.98059 94.4584 3.98059C94.4265 3.97951 94.3951 3.98813 94.3683 4.00532C94.3415 4.02251 94.3205 4.04744 94.3082 4.07682H94.2314L94.2578 3.45476H94.3346C94.3217 3.78093 94.6269 4.04025 94.9959 4.04025C95.2747 4.04025 95.4327 3.91254 95.4327 3.6748C95.4327 3.43767 95.2459 3.34324 94.9051 3.23921C94.5717 3.13848 94.3397 3.00298 94.3397 2.70979C94.3397 2.36233 94.6763 2.14529 94.9752 2.14529C95.1701 2.14529 95.1884 2.19805 95.3671 2.19805ZM93.9817 1.54241C93.9817 1.4159 94.089 1.31277 94.2216 1.31277C94.3652 1.31277 94.4716 1.4171 94.4716 1.56999C94.4716 1.79573 94.2677 2.06074 93.988 2.22893L93.9433 2.17856C94.1454 2.06164 94.2908 1.91745 94.3768 1.71269C94.3397 1.75376 94.2881 1.77265 94.2216 1.77265C94.089 1.77265 93.9817 1.67012 93.9817 1.54241ZM93.3753 2.696C93.2385 2.696 93.1459 2.63244 93.1459 2.52542C93.1459 2.42858 93.2044 2.43188 93.2044 2.36083C93.2044 2.28888 93.1576 2.25591 93.0833 2.25591C93.0071 2.25591 92.8704 2.28139 92.7676 2.59557V3.98449C92.7676 3.99648 92.7763 4.00097 92.7979 4.00097H93.0656V4.07083H92.0145V4.00097H92.2828C92.3038 4.00097 92.314 3.99648 92.314 3.98449V2.27C92.314 2.2595 92.3038 2.25351 92.2828 2.25351H92.0145V2.18366H92.7538L92.7676 2.19715V2.49004C92.847 2.24601 93.0164 2.14529 93.2182 2.14529C93.4595 2.14529 93.6199 2.27329 93.6199 2.47145C93.6199 2.59647 93.5215 2.696 93.3753 2.696Z" fill="#ab9483"></path>
    </svg>