<svg xmlns="http://www.w3.org/2000/svg" width="139" height="26" viewBox="0 0 139 26" fill="none">
      <path d="M6.57306 0.5C3.09333 0.5 0.322632 3.81124 0.322632 13.0004C0.322632 20.9045 1.87692 25.4996 6.57306 25.4996C11.7088 25.4996 12.3166 20.4321 12.3166 16.2438L8.60021 16.074C8.53149 19.5541 8.1947 21.7823 6.74159 21.7823C5.39037 21.7823 4.91814 20.9049 4.91814 13.0009C4.91814 4.82476 5.82841 4.21595 6.74159 4.21595C7.82231 4.21595 8.32875 5.70279 8.32875 9.69016L12.2475 9.55465C12.2475 5.16305 11.6396 0.5 6.57306 0.5ZM19.0628 0.500439C15.179 0.500439 12.6447 3.50758 12.6447 13.0009C12.6447 22.4928 15.179 25.5 19.0628 25.5C22.9472 25.5 25.4813 22.4926 25.4813 13.0009C25.4813 11.6876 25.431 10.5028 25.3372 9.42858C26.8492 14.4734 32.9745 15.6913 32.9745 19.4524C32.9745 20.4321 32.468 21.7823 31.0147 21.7823C29.1227 21.7823 29.1226 19.4189 29.1226 18.0672V18.0668H25.2038C25.2038 21.3788 26.1509 25.4996 30.8466 25.4996C33.428 25.4996 35.2161 24.2448 36.1463 22.3484V25.027H39.39V7.39241H39.4569L42.3963 25.027H44.8282L47.8019 7.39241H47.8696V25.027H51.788V13.4619C51.8701 22.5868 54.3827 25.5 58.2031 25.5C61.7029 25.5 64.1056 23.0564 64.5474 15.6314V25.027H68.9388V15.399H70.6962C73.9091 15.399 75.6436 13.6333 76.2523 10.806C76.2191 11.497 76.2004 12.2252 76.2004 13.0009C76.2004 22.4928 78.7344 25.5 82.6181 25.5C86.5043 25.5 89.0379 22.4926 89.0379 13.0009C89.0379 3.50757 86.5043 0.500428 82.6181 0.500428C79.5211 0.500428 77.284 2.41694 76.5041 8.00566C76.4491 2.92684 73.8528 0.974303 68.9388 0.974303H64.5474V10.3699C64.1056 2.94382 61.7029 0.500429 58.2031 0.500429C54.3827 0.500429 51.8701 3.41366 51.788 12.5398V0.974303H46.0783L44.0177 13.304H43.9508L41.9906 0.974303H36.1463V6.29799C35.7378 2.81304 34.1434 0.500429 30.678 0.500429C27.0013 0.500429 25.0449 3.37785 25.0036 6.93869C24.0971 2.16945 21.9548 0.500439 19.0628 0.500439ZM89.1319 0.974313V25.027H99.1325V21.3106H93.5241V0.974313H89.1319ZM99.8358 0.974313V25.027H104.227V0.974313H99.8358ZM104.966 0.974313V4.69026H108.75V25.027H113.142V4.69026H116.876L114.02 25.027H117.702L118.31 19.6891H121.859L122.499 25.027H126.484H126.723H130.199V10.466H130.267L134.963 25.027H138.375V0.974313H134.862V13.6754H134.795L130.775 0.974313H126.484V23.095L123.749 0.974313H117.398L116.924 4.3459V0.974313H104.966ZM19.0628 4.21595C20.0769 4.21595 20.6842 5.26348 20.6842 10.4659V15.534C20.6842 20.7363 20.0769 21.7823 19.0628 21.7823C18.0486 21.7823 17.4409 20.7363 17.4409 15.534V10.4659C17.4409 5.26348 18.0486 4.21595 19.0628 4.21595ZM30.5751 4.21595C32.3321 4.21595 32.3321 6.47988 32.3321 7.83155H36.1463V15.4616C34.1653 11.2671 28.9206 9.72851 28.9206 6.4125C28.9206 5.09486 29.5289 4.21595 30.5751 4.21595ZM58.2031 4.21595C59.2157 4.21595 59.8241 5.26348 59.8241 10.4659V15.534C59.8241 20.7363 59.2157 21.7823 58.2031 21.7823C57.1895 21.7823 56.5812 20.7363 56.5812 15.534V10.4659C56.5812 5.26348 57.1895 4.21595 58.2031 4.21595ZM82.6186 4.21595C83.6336 4.21595 84.2404 5.26348 84.2404 10.4659V15.534C84.2404 20.7363 83.6336 21.7823 82.6186 21.7823C81.6057 21.7823 80.9975 20.7363 80.9975 15.534V10.4659C80.9975 5.26348 81.6057 4.21595 82.6186 4.21595ZM68.9744 4.69025H69.3102C70.7631 4.69025 72.1148 4.79116 72.1148 8.27111C72.1148 11.176 71.1349 11.8863 69.3445 11.8863H68.9744V4.69025ZM120.134 4.69025H120.202L121.485 16.1765H118.751L120.134 4.69025Z" fill="#e7e6d0"/>
    </svg>