<!-- sample rectangle -->
<svg width="116" height="30" viewBox="0 0 116 30" fill="none" xmlns="http://www.w3.org/2000/svg">
      <path d="M11.6318 2.79652H14.1421C15.6708 2.57131 17.232 2.76932 18.6561 3.36904C20.4428 4.44395 21.7387 6.17445 22.2674 8.19138C22.6417 9.24834 22.6417 9.24834 23.5445 8.874H24.2492V0.506456H0.621873V1.98179H1.59075C2.01178 1.97887 2.42811 2.07032 2.80916 2.24941C3.19021 2.42851 3.5263 2.6907 3.79273 3.01672C4.69554 4.47003 4.84968 6.0995 4.84968 14.5771C4.84968 23.5833 4.6515 25.7852 3.79273 26.9083C3.58072 27.197 3.30624 27.434 2.98977 27.6018C2.6733 27.7696 2.32302 27.8637 1.96508 27.8771C0.621873 28.1193 0.621873 28.0973 0.621873 28.6919C0.547592 28.8907 0.547592 29.1096 0.621873 29.3084H15.5293C15.628 29.1139 15.6794 28.8989 15.6794 28.6808C15.6794 28.4628 15.628 28.2478 15.5293 28.0533C15.1682 27.9528 14.8002 27.8792 14.4283 27.8331C14.026 27.7852 13.6283 27.7042 13.2392 27.5909C12.6822 27.1842 12.2409 26.6392 11.959 26.0097C11.677 25.3802 11.5643 24.688 11.6318 24.0016C11.4116 22.5483 11.3015 19.8839 11.3015 17.6819V15.9424H12.1823C13.2797 15.9088 14.3764 16.0274 15.4412 16.2947C15.9514 16.6099 16.3856 17.0339 16.7129 17.5363C17.0403 18.0388 17.2527 18.6073 17.3349 19.2013L17.5331 19.8839H18.8763V10.1291H17.6432L17.445 11.076C17.3617 11.6834 17.1369 12.2629 16.7889 12.7677C16.4409 13.2725 15.9793 13.6886 15.4412 13.9826C14.9201 14.1377 14.3711 14.1753 13.8338 14.0927H11.3015V11.7146C11.3015 9.24834 11.4336 4.05165 11.5217 3.23692L11.6318 2.79652ZM114.685 20.2583C113.644 18.583 112.02 17.3517 110.127 16.8011C108.675 16.3473 107.333 15.5976 106.185 14.5992C105.927 14.3494 105.734 14.0402 105.622 13.6986C105.511 13.357 105.485 12.9934 105.546 12.6394C105.548 11.9451 105.825 11.2798 106.317 10.7897C106.65 10.4406 107.072 10.1886 107.538 10.0606C108.003 9.93265 108.495 9.93349 108.96 10.0631C109.922 10.3374 110.793 10.867 111.479 11.5958C112.165 12.3246 112.641 13.2254 112.857 14.2028C113.209 15.1937 113.253 15.1937 113.892 14.9295L114.288 14.7753V9.29238L114.002 9.16026C111.834 8.39888 109.535 8.08428 107.242 8.23542C105.268 8.28545 103.383 9.0707 101.957 10.4374C101.311 11.0427 100.804 11.782 100.473 12.6036C100.142 13.4252 99.9949 14.3092 100.041 15.1937C100.054 16.546 100.591 17.8407 101.539 18.8049C102.587 19.8355 103.872 20.5918 105.282 21.0069C108.695 22.3501 109.686 23.2089 109.686 24.7723C109.701 25.4316 109.491 26.0763 109.091 26.6005C108.691 27.1247 108.124 27.4972 107.484 27.6569C106.715 27.8258 105.919 27.8258 105.15 27.6569C104.143 27.2662 103.245 26.6408 102.528 25.8327C101.812 25.0245 101.299 24.0571 101.032 23.0107L100.746 22.3061H100.35C100.16 22.3202 99.9744 22.3648 99.7993 22.4382H99.5791V28.6919H99.9534C101.441 29.1867 102.976 29.5262 104.534 29.7048H106.736C107.69 29.7749 108.65 29.6856 109.576 29.4405C110.751 29.2237 111.849 28.7031 112.761 27.9305C113.672 27.1579 114.366 26.1602 114.773 25.0366C115.036 24.409 115.17 23.7352 115.169 23.0548C115.256 22.0962 115.089 21.1318 114.685 20.2583ZM93.942 8.874C92.6225 8.32 91.2007 8.05126 89.7701 8.08542C88.3394 8.11957 86.9321 8.45585 85.6405 9.07218C84.4265 9.66602 83.3504 10.5078 82.4819 11.5433C81.6133 12.5787 80.9715 13.7848 80.598 15.0836C80.1217 16.5005 79.9199 17.9951 80.0034 19.4876C79.9876 20.2996 80.054 21.1111 80.2016 21.9097C80.5572 23.8735 81.5052 25.6814 82.9184 27.0906C84.3315 28.4997 86.142 29.4427 88.1067 29.7929C89.3862 29.954 90.6808 29.954 91.9602 29.7929C93.2878 29.5588 94.5585 29.073 95.7036 28.3616C96.6508 27.8306 97.4524 27.0743 98.0377 26.1596C98.0001 26.0161 97.9339 25.8816 97.8431 25.7643C97.7523 25.647 97.6387 25.5493 97.5092 25.477C97.2579 25.568 97.0207 25.694 96.8046 25.8513C95.7093 26.5731 94.416 26.9349 93.1052 26.8862C92.2352 26.945 91.363 26.8096 90.5518 26.4897C89.7406 26.1698 89.0107 25.6734 88.415 25.0366C87.9542 24.6086 87.5739 24.1014 87.292 23.5392C86.6077 22.1703 86.239 20.6654 86.213 19.1352V18.2765H98.412V17.8361C98.4389 17.3961 98.4389 16.9549 98.412 16.5149C98.4076 14.9601 97.9918 13.4341 97.2066 12.0921C96.4215 10.75 95.2952 9.63974 93.942 8.874ZM87.7984 16.4929H86.257V15.1937C86.7635 11.8687 88.0186 9.88691 89.56 9.88691C91.1014 9.88691 91.762 11.8467 92.0483 15.4359V16.4488H90.7271L87.7984 16.4929ZM56.1339 8.14734C55.373 8.11784 54.6166 8.27668 53.9319 8.60976C52.4437 9.33251 51.2416 10.5346 50.5188 12.0228L50.2326 12.5513V8.14734H50.1225C49.8582 8.14734 41.7109 9.77681 41.4467 9.88691C41.1824 9.99701 41.2705 10.019 41.2705 10.4154C41.2705 10.8117 41.2705 10.8778 41.4467 10.8998L42.3054 11.076C42.546 11.0819 42.782 11.1424 42.9956 11.2531C43.2093 11.3637 43.3949 11.5215 43.5386 11.7146C44.0891 12.4412 44.1992 13.7184 44.1992 19.1573C44.3079 21.6058 44.2048 24.0591 43.8909 26.4899C43.817 26.8564 43.6311 27.1909 43.359 27.4473C43.0868 27.7037 42.7418 27.8693 42.3715 27.9212L41.6228 28.0753H41.3366V28.6919C41.2567 28.8972 41.2567 29.1251 41.3366 29.3304H53.6457V28.6919C53.6884 28.4811 53.6884 28.264 53.6457 28.0533C52.9045 28.0244 52.1676 27.9286 51.4437 27.767C51.0495 27.5608 50.727 27.2401 50.5187 26.847C50.3103 26.454 50.226 26.007 50.2766 25.565C50.1005 24.2879 50.0124 20.5445 50.0564 17.6819C50.1005 14.8194 50.0564 14.6432 50.2986 14.445C51.0355 13.8801 51.9473 13.5917 52.875 13.6303C53.7494 13.6494 54.608 13.8678 55.3852 14.2689C55.6547 14.4185 55.9437 14.5297 56.244 14.5992C56.244 14.5992 58.446 9.27036 58.446 9.02814C58.1642 8.70069 57.8052 8.44867 57.4015 8.29488C56.9978 8.14109 56.5621 8.09038 56.1339 8.14734ZM41.2925 17.3957C41.2157 15.8222 40.7639 14.2898 39.9749 12.9262C39.1858 11.5626 38.0824 10.4074 36.7564 9.55661C35.1807 8.70653 33.4276 8.23781 31.6378 8.1881C29.8481 8.13838 28.0717 8.50906 26.4512 9.27036C24.16 10.4785 22.43 12.5323 21.6288 14.9955C20.8012 17.7533 20.8012 20.6933 21.6288 23.4511C22.0627 24.9583 22.8736 26.3301 23.9849 27.4367C25.3691 28.7873 27.1539 29.6527 29.0715 29.903C30.3025 30.0059 31.5399 30.0059 32.7708 29.903C33.2238 29.834 33.6723 29.7384 34.1141 29.6167C35.9064 29.1153 37.5189 28.1139 38.7628 26.7295C40.0068 25.3452 40.8308 23.6352 41.1384 21.7996C41.3582 20.3424 41.4099 18.8647 41.2925 17.3957ZM32.1323 28.4056C29.9303 29.0662 28.2788 26.9303 27.7283 22.4382C27.5261 20.0864 27.5261 17.7216 27.7283 15.3699C28.1687 11.7586 29.2917 9.93095 31.0313 9.93095C31.3822 9.9092 31.7333 9.97182 32.0551 10.1136C32.3769 10.2553 32.6601 10.4721 32.8809 10.7457C34.3563 12.221 35.0829 15.1497 35.0829 19.5536C35.2661 22.046 34.8744 24.5472 33.9379 26.8642C33.5244 27.54 32.8846 28.0471 32.1323 28.2955V28.4056ZM71.768 8.58774C71.1467 8.50779 70.5176 8.50779 69.8963 8.58774C68.7036 8.58673 67.5246 8.84205 66.4392 9.33642L65.7566 9.62267V4.84437C65.8759 3.23178 65.8759 1.61259 65.7566 0C65.4923 0 57.0808 1.60745 56.9486 1.67351C56.8837 1.83608 56.8837 2.01739 56.9486 2.17996C56.9486 2.64238 56.9486 2.62036 57.9395 2.84056C58.2178 2.90295 58.485 3.00688 58.7322 3.14884C59.1621 3.55303 59.4481 4.08653 59.547 4.66821C59.7977 6.34397 59.8788 8.04073 59.7892 9.73277V29.0662L60.3837 29.1983C61.2645 29.3965 63.7528 29.8149 64.5675 29.903C66.1944 30.0323 67.829 30.0323 69.4559 29.903C71.2617 29.7185 72.9829 29.0448 74.4341 27.9545C75.8853 26.8641 77.0115 25.3984 77.6913 23.7154C78.0966 22.6351 78.3773 21.5122 78.5281 20.3684C78.6592 18.8189 78.6074 17.2595 78.374 15.7222C78.1377 13.9989 77.3772 12.3901 76.1954 11.1138C75.0137 9.83753 73.468 8.95564 71.768 8.58774ZM65.9988 28.0313C65.9988 27.745 65.7786 18.1003 65.8226 14.2468V11.2301L66.4612 11.076C66.8921 11.0143 67.3295 11.0143 67.7604 11.076C68.2369 11.0275 68.7162 11.1358 69.1256 11.3843C69.9479 11.9518 70.6308 12.6985 71.1228 13.5681C71.6149 14.4377 71.9032 15.4076 71.9662 16.4048C72.1266 18.0082 72.1266 19.6237 71.9662 21.2271C71.8344 23.5576 70.9364 25.7793 69.4119 27.5468C68.9792 27.9578 68.4357 28.2334 67.8485 28.3395C67.4041 28.4168 66.9497 28.4168 66.5053 28.3395C66.0869 28.3395 66.0869 28.2074 66.0869 28.0313H65.9988Z" fill="#ab9483"></path>
    </svg>