<!-- sample rectangle -->
<svg width="167" height="24" viewBox="0 0 167 24" fill="none" xmlns="http://www.w3.org/2000/svg">
      <path d="M36.8159 19.998L35.439 15.261L34.861 12.7093C34.9463 12.6873 34.8768 12.5167 34.8736 12.4914C34.3841 8.44607 31.2609 8.90081 29.2335 9.59558C29.2335 9.59558 29.126 9.69663 29.1292 9.56401C29.1356 9.39979 29.1387 7.76075 29.1387 7.31863C29.1387 7.21445 29.2303 7.18284 29.2303 7.18284C31.763 6.07125 35.4294 6.16599 37.6843 7.29338C39.3769 8.14287 40.3623 9.42822 41.2939 13.2873C41.5497 14.3547 41.8434 15.8232 42.6581 19.0127C43.0498 20.5444 43.4634 21.116 44.3066 20.9549C44.4109 20.936 44.414 20.9897 44.414 21.0812C44.4109 21.8076 44.4109 23.0234 44.4109 23.1087C44.4109 23.3613 44.4109 23.3613 44.3256 23.3582C44.2182 23.355 41.995 23.3613 41.995 23.3613C40.9812 23.355 39.7464 23.355 38.1422 21.9528L36.8159 19.998Z" fill="#ab9483"></path>
      <path d="M36.8158 19.9981C36.8537 20.1119 36.6895 20.2255 36.5821 20.2761C33.0799 22.2688 31.8072 16.3665 35.2179 15.2296C35.3568 15.1917 35.4389 15.2611 35.4389 15.2611L34.861 12.7095C33.0388 13.1105 30.1745 13.9348 28.9335 15.1064C26.1576 17.7276 27.3545 21.9498 30.4019 23.0425C32.1041 23.652 35.6221 24.1352 38.1422 21.953L36.8158 19.9981Z" fill="#ab9483"></path>
      <path d="M60.6218 6.07716C62.5514 6.07716 64.1177 4.81398 64.1177 3.25391C64.1177 1.6939 62.5514 0.430664 60.6218 0.430664C58.6891 0.430664 57.1259 1.6939 57.1259 3.25391C57.1259 4.81398 58.6891 6.07716 60.6218 6.07716Z" fill="#ab9483"></path>
      <path d="M76.2238 13.755C76.3312 13.7266 76.7544 13.7361 76.7196 13.1392C76.628 11.6171 76.2491 10.5781 75.8038 9.97173C74.9638 8.83171 73.4258 8.79065 72.6331 10.4802C72.1689 11.4655 72.0773 13.2592 72.1405 14.4561C72.1626 14.8288 72.2226 14.8477 72.5636 14.7656L72.8384 17.0172C72.7184 17.0804 72.57 17.0267 72.7437 17.491C73.8395 20.4374 75.4122 20.8385 77.5155 20.7184C78.605 20.6584 79.8239 20.09 80.2534 19.8658C80.6797 19.6384 80.6134 19.91 80.6134 20.071V22.0638C80.6134 22.3858 80.6419 22.4996 80.0734 22.7048C77.1996 23.7564 73.4258 24.0059 70.4951 22.5627C68.0319 21.3501 65.7897 18.151 65.9824 14.6614C66.2887 9.10647 69.7404 6.1032 74.9164 6.27055C78.9934 6.40321 82.1103 9.39381 82.4893 13.7898C82.5051 13.9729 82.5019 14.254 82.3282 14.3519L76.2238 13.755Z" fill="#ab9483"></path>
      <path d="M76.2239 13.7551C75.5038 13.973 72.5637 14.7657 72.5637 14.7657L72.8384 17.0174C72.9553 16.9511 82.3282 14.352 82.3282 14.352L76.2239 13.7551Z" fill="#ab9483"></path>
      <path d="M25.7255 22.0734C25.7223 22.8345 25.8991 23.1251 25.9591 23.2514C26.0097 23.3651 25.8581 23.3493 25.8581 23.3493H24.677H19.7536C19.7536 23.3493 19.6336 23.3556 19.6715 23.2514C19.7442 23.0461 19.8926 22.6766 19.8926 22.0734L19.8862 21.2839V13.7805V12.3689C19.8832 11.8383 19.5547 10.6983 18.2694 10.6951C17.2051 10.7046 16.2135 11.671 16.2104 13.01V15.8111L16.2072 21.4008C16.2072 21.4008 16.2104 22.045 16.2104 22.0734C16.2072 22.8345 16.3841 23.1251 16.444 23.2514C16.4946 23.3651 16.343 23.3493 16.343 23.3493H15.165H10.2386C10.2386 23.3493 10.1186 23.3556 10.1564 23.2514C10.2291 23.0461 10.3743 22.6766 10.3775 22.0734V21.6534V13.79V12.3784C10.3743 11.8447 10.0459 10.7078 8.75747 10.7015C7.69638 10.7109 6.7016 11.6773 6.7016 13.0163V13.7395V21.6219L6.69534 22.0734C6.69534 22.8345 6.87218 23.1251 6.92895 23.2514C6.97955 23.3651 6.83113 23.3493 6.83113 23.3493H5.64996H0.726659C0.726659 23.3493 0.603492 23.3556 0.641367 23.2514C0.717214 23.0461 0.85927 22.6766 0.865631 22.0734V21.5429C0.865631 19.5818 0.862451 10.9699 0.85927 10.1772C0.865631 9.65931 0.701409 9.28986 0.622478 9.08771C0.575062 8.98353 0.679243 8.93616 0.679243 8.93616C0.679243 8.93616 2.92468 7.92876 6.60368 6.22972C6.64156 6.21396 6.70478 6.23603 6.7016 6.30239V7.78347V9.05615C6.7016 9.12563 6.77745 9.16351 6.83421 9.10352C6.86582 9.07195 6.9037 9.02141 6.9543 8.96459C8.97219 5.88865 15.2535 5.38972 16.2419 9.07195C16.2609 9.13508 16.3304 9.12877 16.3715 9.07195C17.6156 7.40453 18.8631 6.56448 21.4274 6.56448C26.4423 6.56448 25.7191 10.8404 25.7159 13.4742L25.7191 21.2839L25.7255 22.0734Z" fill="#ab9483"></path>
      <path d="M51.8632 22.0852C51.86 22.8431 52.0368 23.1368 52.0937 23.2631C52.1474 23.3769 51.9958 23.3611 51.9958 23.3611H50.502H45.5787C45.5787 23.3611 45.4555 23.3642 45.4934 23.2631C45.566 23.0547 45.7113 22.6884 45.7144 22.0852L45.7176 21.6305C45.7176 19.6757 45.7144 11.3291 45.7144 10.5364C45.7144 10.0943 45.4176 9.27001 45.3608 9.1216C45.3229 9.04267 45.446 9.01105 45.446 9.01105C45.446 9.01105 48.1051 7.65313 51.7683 5.95728C51.8063 5.94147 51.8662 5.96359 51.8662 6.0299V7.67839C51.8662 7.89947 51.8884 8.59105 51.8884 8.68266C51.8884 8.75528 51.9642 8.79315 52.0178 8.73316C52.0494 8.69841 52.0905 8.65105 52.1378 8.59105C53.5053 5.90678 55.678 5.99202 57.3296 6.23835C57.5412 6.26992 57.5127 6.3394 57.456 6.6173C57.3486 7.14784 56.6191 10.1511 56.5559 10.3722C56.5053 10.5585 56.4548 10.6406 56.2307 10.5932C54.1558 10.1574 51.8662 10.8333 51.8662 13.4197V13.7923C51.8662 15.6776 51.8662 20.2883 51.8694 21.6336L51.8632 22.0852Z" fill="#ab9483"></path>
      <path d="M63.8916 22.0856C63.8884 22.8435 64.0653 23.1372 64.1222 23.2635C64.1758 23.3772 64.0242 23.3614 64.0242 23.3614H62.521H57.5977C57.5977 23.3614 57.4745 23.3677 57.5092 23.2635C57.5851 23.0551 57.7303 22.6888 57.7335 22.0856L57.7367 21.9971V9.19462C57.7367 8.8788 57.7367 8.87562 57.9608 8.77457C58.0777 8.72089 58.0367 8.73983 58.0367 8.73983C58.0367 8.73983 60.1588 7.69137 63.699 6.02394C63.7368 6.005 63.8853 6.03025 63.8821 6.09661C63.8821 6.60185 63.8884 20.6676 63.8916 22.0256V22.0856Z" fill="#ab9483"></path>
      <path d="M101.166 20.4459C99.6916 21.1975 97.4905 21.4407 96.1768 19.7701C94.8693 18.1058 94.2251 16.65 94.2283 14.2657C94.2314 8.84658 97.9927 8.13601 100.847 9.73082V6.94545C99.2369 6.12751 97.1115 5.98541 95.5136 6.15281C90.7544 6.66124 87.9755 10.6498 87.9723 15.1878C87.9691 20.1333 91.1271 26.0514 101.166 23.3008V20.4459Z" fill="#ab9483"></path>
      <path d="M109.054 21.4584C109.054 21.4584 109.032 -0.0412694 109.041 0.0692725C109.041 0.0692725 104.604 2.11883 102.283 3.22728C102.514 3.41675 103 4.24418 103 6.96951V13.8697C103.003 15.8435 103 19.6268 102.972 22.6206C102.969 22.949 102.76 23.4069 102.76 23.4385H109.465C109.398 23.4385 109.054 21.4584 109.054 21.4584Z" fill="#ab9483"></path>
      <path d="M120.395 20.1743C120.432 20.2943 120.369 20.3322 120.259 20.3891C119.495 20.8754 118.184 20.9828 117.413 20.2659C116.687 19.4069 116.308 18.4248 116.614 17.1963C116.858 16.4416 117.631 15.1246 118.923 14.8941L118.509 12.4246C118.512 12.4688 118.509 12.4656 118.38 12.494C117.988 12.592 117.78 12.6298 117.101 12.7435C115.67 12.9804 114.053 13.4667 112.708 14.5152C108.871 17.4963 110.671 21.8828 113.788 23.1713C115.607 23.9229 118.819 24.3618 121.471 22.148L120.395 20.1743Z" fill="#ab9483"></path>
      <path d="M120.395 20.1743L118.97 14.9162C118.97 14.9162 118.97 14.8784 118.923 14.8941L118.509 12.4246C118.225 8.01282 114.682 8.42025 112.714 9.15602C112.714 9.15602 112.604 9.26025 112.61 9.12128C112.613 8.95079 112.62 7.24862 112.62 6.7907C112.616 6.68015 112.711 6.65172 112.711 6.65172C115.215 5.55276 119.043 5.70118 121.254 6.80963C123.193 7.77916 124.156 9.56026 124.544 11.0919C124.544 11.0919 126.284 19.0311 126.48 19.8901C126.638 20.5785 127.086 21.1786 127.787 21.1754C128.065 21.1754 128.103 21.2291 128.106 21.5165C128.11 22.2112 128.113 23.2818 128.11 23.4302C128.106 23.6102 128.094 23.6766 127.958 23.6766C127.847 23.6766 125.552 23.6797 125.552 23.6797C124.317 23.6734 123.3 23.6702 121.471 22.1481L120.395 20.1743Z" fill="#ab9483"></path>
      <path d="M132.768 5.85809C134.77 5.85809 136.393 4.54754 136.393 2.92748C136.393 1.3106 134.77 0 132.768 0C130.763 0 129.139 1.3106 129.139 2.92748C129.139 4.54754 130.763 5.85809 132.768 5.85809Z" fill="#ab9483"></path>
      <path d="M135.924 22.0854V22.4297C135.924 22.9286 136.148 23.3044 136.202 23.4371C136.205 23.4529 136.186 23.4623 136.186 23.4623H134.478H129.248C129.248 23.4623 129.226 23.4529 129.232 23.4371C129.28 23.3139 129.507 22.9223 129.507 22.4297V22.057C129.507 20.0201 129.51 10.0155 129.51 8.7713C129.51 8.46497 129.652 8.45235 129.652 8.45235C129.652 8.45235 131.999 7.25229 135.82 5.48694C135.858 5.46801 135.924 5.49013 135.921 5.55961C135.921 6.08697 135.924 20.6769 135.924 22.0854Z" fill="#ab9483"></path>
      <path d="M149.559 10.4666C148.049 10.4445 147.67 10.3498 146.875 10.6308C145.883 11.0098 145.201 11.7993 145.182 13.0025V13.732V22.0944V22.4292C145.182 22.9155 145.4 23.2818 145.45 23.4113C145.457 23.4239 145.438 23.4334 145.438 23.4334H143.78H138.695C138.695 23.4334 138.676 23.4239 138.679 23.4081C138.727 23.2913 138.948 22.9091 138.948 22.4292V22.0691V10.135C138.913 9.68346 138.73 9.13711 138.676 8.99501C138.638 8.91603 138.762 8.8876 138.762 8.8876C138.762 8.8876 141.367 7.68127 145.081 5.96961C145.115 5.95067 145.182 5.97279 145.179 6.04228V7.53599C145.179 7.75707 145.204 8.46128 145.204 8.55602C145.204 8.6255 145.28 8.66338 145.337 8.60339C145.368 8.56864 145.406 8.52128 145.457 8.46128C146.953 5.68858 149.398 6.0391 150.642 6.23488C150.857 6.26649 150.825 6.33593 150.768 6.61701C150.658 7.15386 149.954 10.0182 149.89 10.2424C149.837 10.4319 149.789 10.473 149.559 10.4666Z" fill="#ab9483"></path>
      <path d="M159.799 14.1278C159.903 14.0963 160.326 14.1057 160.291 13.5089C160.2 11.9867 159.821 10.9509 159.375 10.3445C158.535 9.20134 156.997 9.16028 156.205 10.853C155.744 11.8351 155.652 13.632 155.715 14.8258C155.734 15.1984 155.797 15.2173 156.135 15.1384L156.41 17.3869C156.293 17.4532 156.142 17.3995 156.315 17.8638C157.411 20.8102 158.987 21.2081 161.087 21.0912C162.177 21.0312 163.396 20.4596 163.825 20.2354C164.255 20.0081 164.188 20.2828 164.188 20.4438V22.4366C164.188 22.7555 164.213 22.8692 163.648 23.0777C160.771 24.1261 156.997 24.3756 154.07 22.9324C151.607 21.7229 149.365 18.5206 149.554 15.0342C149.86 9.4761 153.315 6.47282 158.488 6.64336C162.568 6.77602 165.682 9.76349 166.061 14.1594C166.077 14.3426 166.077 14.6237 165.903 14.7215L159.799 14.1278Z" fill="#ab9483"></path>
      <path d="M159.799 14.1277C159.079 14.3425 156.135 15.1383 156.135 15.1383L156.41 17.3868C156.527 17.3236 165.903 14.7214 165.903 14.7214L159.799 14.1277Z" fill="#ab9483"></path>
    </svg>