<svg xmlns="http://www.w3.org/2000/svg" width="214" height="28" viewBox="0 0 214 28" fill="none">
      <path d="M16.5248 2.89256C16.5248 0.578512 14.3265 0 12.5909 0V0.347107C13.6322 0.347107 14.4422 0.694215 14.4422 1.50413C14.4422 1.96694 14.0951 2.66116 13.0537 2.66116C12.2438 2.66116 10.5083 2.19835 9.23555 1.73554C7.73141 1.15702 6.34299 0.694215 5.18596 0.694215C2.87191 0.694215 1.25208 2.42975 1.25208 4.39669C1.25208 6.13223 2.5248 6.71074 2.98761 6.94215L3.10332 6.71074C2.87191 6.47934 2.5248 6.24793 2.5248 5.55372C2.5248 5.09091 2.98761 4.28099 4.14464 4.28099C5.18596 4.28099 6.57439 4.7438 8.42563 5.32231C10.0455 5.78512 11.781 6.13223 12.7066 6.24793V9.83471L10.9711 11.3388V11.4545L12.7066 12.9587V17.9339C11.781 18.5124 10.7397 18.6281 9.81406 18.6281C8.07852 18.6281 6.57439 18.1653 5.30166 16.7769L10.0455 14.4628V6.47934L4.26034 9.02479C4.72315 7.52066 5.99588 6.47934 7.26861 5.78512L7.1529 5.43802C3.68183 6.36364 0.557861 9.60331 0.557861 13.5372C0.557861 18.1653 4.37604 21.6364 8.65703 21.6364C13.2851 21.6364 16.2934 17.9339 16.2934 14.1157H16.062C15.3678 15.6198 14.3265 17.0083 13.0537 17.7025V12.9587L14.905 11.4545V11.3388L13.0537 9.83471V6.24793C14.7893 6.24793 16.5248 5.09091 16.5248 2.89256ZM6.45869 15.6198L5.07026 16.314C4.26034 15.2727 3.79753 13.8843 3.79753 11.9174C3.79753 11.1074 3.79753 10.1818 4.02894 9.4876L6.45869 8.44628V15.6198ZM18.7232 18.281L17.219 19.438L17.4504 19.6694L18.1446 19.0909L20.6901 21.405L24.1612 19.0909L24.0455 18.8595L23.1198 19.438L21.9628 18.281V10.4132L22.8884 9.71901L24.8554 11.3388V18.3967C24.8554 22.7934 23.9298 23.4876 21.9628 24.1818V24.5289C25.2025 24.6446 28.2108 23.6033 28.2108 17.9339V10.2975L29.2521 9.4876L29.0207 9.2562L28.095 9.95041L25.2025 7.52066L21.9628 9.95041V0.46281H21.7314L17.6818 3.23967V3.47107C18.1446 3.70248 18.8389 3.93388 18.8389 5.20661L18.7232 18.281ZM39.8967 17.0083L37.0041 19.2066L34.1116 16.8926V15.5041L39.5496 11.8017V11.686L36.7727 7.52066L30.7562 10.7603V18.3967L29.5992 19.3223L29.8306 19.5537L30.8719 18.7438L34.8058 21.6364L40.0124 17.4711L39.8967 17.0083ZM34.1116 15.0413V9.3719L34.343 9.2562L36.8884 13.3058L34.1116 15.0413ZM61.9959 1.85124C61.9959 1.50413 61.8802 1.15702 61.7645 0.809917H61.5331C61.186 1.73554 60.7231 2.19835 59.5661 2.19835C58.5248 2.19835 57.8306 1.61983 57.3678 1.15702L54.0124 4.97521L54.2438 5.20661L55.4008 4.16529C56.0951 4.7438 56.6736 5.20661 58.2934 5.32231V14.9256L51.4669 3.23967C50.8884 2.31405 50.0785 1.04132 48.4587 1.04132C46.6074 1.04132 44.9876 2.66116 45.219 5.20661H45.5661C45.6818 4.5124 46.0289 3.70248 46.8389 3.70248C47.4174 3.70248 47.9959 4.28099 48.343 4.8595V8.67769C46.2603 8.67769 44.8719 9.60331 44.8719 11.3388C44.8719 12.2645 45.3347 13.6529 46.7232 14V13.7686C46.4917 13.5372 46.376 13.3058 46.376 12.9587C46.376 12.3802 46.8389 11.9174 47.6488 11.9174H48.2273V16.7769C45.7975 16.7769 43.8306 18.1653 43.8306 20.4793C43.8306 22.6777 45.6818 23.719 47.7645 23.6033V23.3719C46.4917 23.2562 45.9132 22.6777 45.9132 21.8678C45.9132 20.8264 46.6074 20.3636 47.5331 20.3636C48.4587 20.3636 49.2686 20.9421 49.8471 21.6364L53.2025 17.9339L52.9711 17.7025L52.1612 18.6281C50.8884 17.4711 50.1942 17.124 48.6901 16.8926V5.32231L57.9463 21.5207H58.6405V5.32231C60.376 5.20661 61.9959 3.81818 61.9959 1.85124ZM70.4422 17.0083L67.5496 19.2066L64.657 16.8926V15.5041L70.095 11.8017V11.686L67.3182 7.52066L61.3017 10.7603V18.3967L60.1446 19.3223L60.376 19.5537L61.4174 18.7438L65.3512 21.6364L70.5579 17.4711L70.4422 17.0083ZM64.657 15.0413V9.3719L64.8884 9.2562L67.4339 13.3058L64.657 15.0413ZM89.3017 8.79339L88.4917 9.3719L86.2934 7.52066L83.7479 9.83471L84.7893 10.876V19.5537L82.0124 17.8182V10.6446L82.938 10.0661L80.2769 7.52066L77.7314 9.83471L78.7727 10.876V19.2066L78.4256 19.438L75.9959 17.7025V10.7603C75.9959 9.1405 75.186 8.67769 74.2603 8.09917C73.4504 7.52066 72.9876 7.17355 72.9876 6.36364C72.9876 5.66942 73.6818 5.32231 74.0289 5.09091V4.8595C73.1033 4.8595 70.6736 5.78512 70.6736 7.98347C70.6736 9.1405 71.2521 9.60331 71.8306 10.1818C72.4091 10.7603 72.9876 11.2231 72.9876 12.2645V18.9752L71.7149 19.9008L71.9463 20.1322L73.1033 19.2066L75.7645 21.5207L78.657 19.5537L81.8967 21.5207L88.0289 17.9339V10.1818L89.5331 9.02479L89.3017 8.79339ZM110.822 2.42975L109.665 3.47107L107.12 1.15702L103.302 3.93388V1.38843H102.955L103.07 20.1322C102.723 20.1322 101.682 19.9008 100.872 19.6694L100.641 4.04959C100.641 2.89256 99.8306 1.27273 97.7479 1.27273C95.6653 1.27273 94.2769 2.89256 94.2769 4.5124H94.624C94.7397 3.81818 95.0868 3.23967 95.781 3.23967C96.4752 3.23967 97.0537 3.70248 97.0537 5.20661V9.71901C94.9711 9.83471 93.6984 10.9917 93.6984 12.4959C93.6984 13.4215 94.1612 14.8099 95.5496 14.8099V14.5785C95.0868 14.3471 94.9711 14 94.9711 13.7686C94.9711 13.0744 95.5496 12.843 96.4752 12.843H96.938V20.0165C95.2025 20.595 94.5083 21.8678 94.5083 23.2562C94.5083 25.2231 96.0124 26.6116 98.3265 26.6116C99.9463 26.6116 101.335 26.3802 102.723 26.0331C103.88 25.8017 105.384 25.4545 106.079 25.4545C107.004 25.4545 107.351 25.9174 107.351 26.4959C107.351 27.3058 107.004 27.6529 106.541 27.7686V28C108.393 27.6529 109.55 26.4959 109.55 24.7603C109.55 23.0248 107.814 21.9835 105.963 21.9835C105.037 21.9835 103.07 22.3306 101.682 22.562C100.062 22.9091 98.4422 23.1405 97.9793 23.1405C97.1694 23.1405 96.2438 22.7934 96.2438 21.6364C96.2438 20.7107 97.0537 19.9008 99.0207 19.9008C100.062 19.9008 101.335 20.0165 102.607 20.3636C103.996 20.7107 105.269 21.0579 106.426 21.0579C108.161 21.0579 109.665 20.4793 109.665 18.0496V3.81818L111.054 2.66116L110.822 2.42975ZM106.079 9.4876C105.731 9.83471 105.269 10.1818 104.69 10.1818C104.112 10.1818 103.533 9.83471 103.302 9.4876V4.39669L104.459 3.58678L106.079 5.09091V9.4876ZM106.079 12.9587C105.847 12.7273 105.269 12.3802 104.69 12.3802C104.112 12.3802 103.533 12.7273 103.302 12.9587V9.95041C103.533 10.1818 104.112 10.5289 104.69 10.5289C105.269 10.5289 105.847 10.1818 106.079 9.95041V12.9587ZM106.079 18.3967C106.079 19.3223 105.5 20.2479 104.227 20.2479H103.302V13.4215C103.533 13.1901 104.112 12.843 104.69 12.843C105.269 12.843 105.731 13.1901 106.079 13.4215V18.3967ZM121.93 10.1818L118.227 7.52066L112.558 10.7603V18.281L111.401 19.2066L111.517 19.438L112.442 18.7438L116.145 21.5207L121.93 18.0496V10.1818ZM115.682 17.4711V9.1405L118.574 11.2231V19.438L115.682 17.4711ZM132.921 7.75207H132.69C132.343 7.98347 131.996 8.21488 131.649 8.21488C131.186 8.21488 130.607 7.98347 130.376 7.63636H130.145L128.178 9.83471L126.211 7.63636L122.74 9.95041L122.855 10.1818L123.781 9.60331L124.938 10.876V18.1653L123.434 19.3223L123.665 19.5537L124.36 18.9752L127.136 21.2893L130.723 18.8595L130.607 18.6281L129.566 19.2066L128.178 18.0496V9.95041C128.756 10.5289 129.45 11.1074 130.26 11.1074C131.88 11.2231 132.806 9.6033 132.921 7.75207ZM146.806 18.8595L142.872 21.5207L137.55 13.4215L141.368 7.52066H141.599C142.062 7.98347 142.756 8.44628 143.566 8.44628C144.376 8.44628 144.955 7.98347 145.302 7.52066H145.533C145.417 9.83471 143.798 11.2231 142.641 11.2231C141.483 11.2231 140.905 10.6446 140.211 10.2975L139.864 10.876L145.649 19.438L146.806 18.7438V18.8595ZM134.079 18.281L132.574 19.438L132.806 19.6694L133.5 19.0909L136.045 21.405L139.517 19.0909L139.285 18.8595L138.36 19.438L137.202 18.281V0.46281H137.087L132.921 3.23967V3.47107C133.384 3.70248 134.079 3.81818 134.079 5.20661V18.281ZM166.012 2.89256C166.012 0.578512 163.814 0 162.079 0V0.347107C163.12 0.347107 163.93 0.694215 163.93 1.50413C163.93 1.96694 163.583 2.66116 162.541 2.66116C161.731 2.66116 159.996 2.19835 158.723 1.73554C157.219 1.27273 155.831 0.809917 154.674 0.809917C152.359 0.809917 150.74 2.54545 150.74 4.5124C150.74 6.24793 152.012 6.82645 152.475 7.05785L152.591 6.82645C152.244 6.59504 151.897 6.36364 151.897 5.66942C151.897 5.20661 152.359 4.39669 153.517 4.39669C154.558 4.39669 155.946 4.8595 157.798 5.43802C159.417 5.90083 161.153 6.24793 162.079 6.36364V9.95041L160.343 11.4545V11.5702L162.079 13.0744V18.0496C161.153 18.6281 160.112 18.7438 159.186 18.7438C157.45 18.7438 155.946 18.281 154.674 16.8926L159.417 14.5785V6.47934L153.632 9.02479C154.211 7.52066 155.483 6.47934 156.64 5.66942L156.525 5.43802C153.054 6.36364 149.93 9.4876 149.93 13.4215C149.93 18.0496 153.748 21.5207 158.029 21.5207C162.657 21.5207 165.665 17.8182 165.665 14H165.434C164.74 15.5041 163.698 16.8926 162.426 17.5868V12.843L164.277 11.3388V11.2231L162.541 9.71901V6.24793C164.277 6.24793 166.012 5.09091 166.012 2.89256ZM155.946 15.6198L154.558 16.314C153.748 15.2727 153.285 13.8843 153.285 11.9174C153.285 11.1074 153.401 10.1818 153.632 9.4876L156.062 8.44628L155.946 15.6198ZM170.062 1.73554H169.946L167.632 3.70248V3.81818L169.599 6.01653H169.831L172.145 4.04959V3.93388L170.062 1.73554ZM173.533 18.8595L172.607 19.438L171.45 18.281V10.2975L172.607 9.4876L172.376 9.2562L171.566 9.95041L169.483 7.52066L166.128 9.83471L166.36 10.1818L167.169 9.60331L168.211 10.876V18.3967L166.707 19.5537L166.822 19.7851L167.632 19.2066L170.178 21.5207L173.649 19.2066L173.533 18.8595ZM192.855 18.7438L192.045 19.3223L190.773 18.1653V10.2975L191.93 9.3719L191.698 9.1405L190.773 9.95041L188.112 7.52066L184.641 9.95041L181.979 7.52066L178.74 9.95041L176.657 7.52066L173.302 9.83471L173.417 10.1818L174.227 9.60331L175.384 10.876V18.3967L174.459 19.3223L177.12 21.5207L179.665 19.2066L178.624 18.1653V10.2975L179.665 9.60331L181.401 11.2231V18.1653L180.475 19.0909L183.136 21.2893L185.682 18.9752L184.641 17.9339V10.2975L185.566 9.71901L187.417 11.3388V18.281L186.607 19.0909L189.269 21.5207L192.855 19.0909V18.7438ZM202.921 17.0083L200.029 19.2066L197.136 16.8926V15.5041L202.574 11.8017V11.686L199.798 7.52066L193.781 10.7603V18.6281L197.831 21.5207L203.037 17.3554L202.921 17.0083ZM197.136 15.0413V9.3719L197.368 9.2562L199.913 13.3058L197.136 15.0413ZM213.45 14L211.252 12.2645C212.756 10.9917 213.335 9.2562 213.335 8.09917V7.40496H213.103C212.872 7.98347 212.409 8.56198 211.483 8.56198C210.558 8.56198 209.979 8.09917 209.401 7.40496L204.194 10.2975V14.4628L206.161 15.9669C204.194 17.7025 203.847 18.8595 203.847 19.7851C203.847 20.9421 204.426 21.7521 205.351 22.0992L205.467 21.8678C205.236 21.6364 205.004 21.5207 205.004 20.9421C205.004 20.595 205.467 20.0165 206.393 20.0165C207.55 20.0165 208.244 20.8264 208.591 21.1736L213.566 18.1653V14H213.45ZM212.178 10.5289C211.368 11.9174 209.632 13.3058 208.591 14L207.318 12.9587V8.90909C207.781 10.0661 209.054 10.9917 210.326 10.9917C211.136 10.9917 211.599 10.876 212.178 10.5289ZM210.211 19.7851C209.632 18.5124 208.244 17.5868 206.855 17.5868C206.508 17.5868 205.583 17.5868 204.657 18.1653C205.236 17.2397 206.74 15.6198 208.707 14.4628L210.095 15.6198L210.211 19.7851Z" fill="#e7e6d0"/>
    </svg>