<svg xmlns="http://www.w3.org/2000/svg" width="125" height="32" viewBox="0 0 125 32" fill="none">
      <path fill-rule="evenodd" clip-rule="evenodd" d="M68.5068 19.0612V18.3673H78.098V18.5714V18.8775V19.0816H75.8174V31.5919H75.3895L75.3487 31.4286C75.0843 30.1837 73.8011 29.7551 73.1498 29.7551H73.0476H72.9054C71.8262 29.7944 70.8607 30.2505 69.8628 30.7218L69.7491 30.7755C69.6473 30.8163 69.5503 30.8571 69.4536 30.898C69.357 30.9388 69.2604 30.9796 69.1586 31.0204C68.0994 31.5306 66.9593 31.9796 65.5744 31.9796C58.1621 31.9796 52.7456 25.5714 52.7456 16.5306C52.7456 5.44899 59.9949 0.0816327 65.2692 0.0816327C66.4297 0.0816327 67.1832 0.306122 68.2011 0.632652L68.629 0.755101C68.7261 0.7876 68.8278 0.822164 68.933 0.858141L68.9342 0.858559C69.1595 0.935431 69.4043 1.01875 69.6674 1.10204L70.0748 1.20408C70.36 1.2653 70.7266 1.32653 71.154 1.34694C72.0297 1.36735 73.0476 1.14286 73.4755 0.122449L73.5363 0H73.8825H73.9846V11.2245H73.8825H73.5163L73.4755 11.0612C71.6018 3.59184 69.3008 0.816327 65.2896 0.79592H65.2487C61.9498 0.79592 60.8501 2.91837 60.2597 4.06123C58.6917 7.10203 58.366 14.0408 58.366 16.1633C58.366 22.102 58.8952 24.6531 59.8931 27.3061C60.9114 30.0204 62.6829 31.3265 65.3505 31.2857C67.8146 31.2449 70.9709 30.1837 70.9709 25.4286V19.0612H68.5068ZM124.159 20.3674V20.1837H124.749V31.4082H102.737V30.6735H105.425V1.61226H102.432H99.9067V23.5306C99.9675 27.3673 97.4221 32 91.863 32C83.5754 32 80.7447 27.6735 80.7447 22.0816V1.61226H77.8941V1.20409V0.89797H88.5845V1.20409V1.61226H85.8356V24.6327C85.8356 24.8776 86.0186 30.9592 92.0465 31.1837C93.6957 31.2449 95.508 30.5918 96.7908 29.3673C97.85 28.3674 99.0718 26.449 99.1327 23.3266V1.61226H96.7708V1.20409V0.89797H102.432H103.043H103.246H123.508V11.1837H123.019L122.978 11.0204C121.094 1.46117 116.732 1.55107 112.262 1.64319C112.094 1.64665 111.926 1.65011 111.758 1.65307C111.432 1.67348 110.903 1.67348 110.577 1.67348V15.4694H110.801H110.826C113.285 15.4695 116.28 15.4695 116.93 9.48982L116.951 9.30614H117.439V22.4694H116.951L116.93 22.2857C116.456 16.147 113.662 16.1761 111.19 16.2019L111.142 16.2024C111.083 16.203 111.023 16.2036 110.964 16.2041H110.557V30.6939H110.801C110.89 30.6939 110.995 30.6951 111.114 30.6965C112.836 30.7163 117.609 30.7712 120.921 27.7755C122.937 25.9592 124.016 23.4694 124.159 20.3674ZM37.0258 0.163281C30.7742 0.163281 23.9119 6.42858 23.9119 16C23.9119 25.5715 30.9983 31.9184 37.0258 31.9184C43.0533 31.9184 50.1397 25.5715 50.1397 16C50.1193 6.42858 43.2775 0.163281 37.0258 0.163281ZM44.3158 14.8164V15.0204V15.1633V15.2857V15.4694V15.5306V15.7143V15.7551V15.9592V16.1225C44.3158 17.898 44.1528 24.7347 42.3609 28.1429C41.3428 30.1225 39.3675 31.1633 36.985 31.1633C34.6025 31.1633 32.6069 30.1225 31.6091 28.1429C29.8172 24.7347 29.6746 17.898 29.6746 16.1225V15.9592V15.7551V15.7143V15.5306V15.4694V15.2857V15.1633V15.0204V14.8164V14.7347C29.7357 12 30.0819 6.87756 31.6091 3.87757C32.8309 1.38777 35.3152 0.857159 36.985 0.857159C38.6752 0.857159 41.1391 1.38777 42.3609 3.87757C43.888 6.87756 44.2141 12 44.2954 14.7347C44.3158 14.7551 44.3158 14.7959 44.3158 14.8164ZM20.7348 0.89797H26.3347H26.5383V1.59185H24.054H23.7893L14.8498 31.5715H14.687L3.44646 1.59185H3.16137H0.51416V1.18368V0.89797H10.6347V1.18368V1.59185H8.49652H8.35398L16.3771 23.8776L23.0155 1.59185H20.5312V0.89797H20.7348Z" fill="#e7e6d0"/>
    </svg>